<svg width="49" height="45" viewBox="0 0 49 45" fill="none" xmlns="http://www.w3.org/2000/svg">
<path d="M33.2207 2.05835C36.907 2.05839 40.3264 3.54268 42.8115 6.23804C45.2602 8.89418 46.5605 12.4684 46.5605 16.2537C46.5605 20.2605 45.0409 23.8359 42.082 27.406C39.4987 30.5233 35.8271 33.6422 31.8057 37.0691C30.4146 38.2548 28.8494 39.5904 27.2256 41.0105C26.4182 41.717 25.3815 42.1052 24.3096 42.1052C23.237 42.1052 22.2011 41.7163 21.3936 41.0095L19.0166 38.9519C18.2486 38.2929 17.5095 37.6635 16.8145 37.071C12.7925 33.6436 9.12136 30.5238 6.53809 27.407C3.57922 23.8366 2.05859 20.2605 2.05859 16.2537C2.05862 12.4683 3.3585 8.8941 5.80664 6.23804H5.80762C8.29274 3.5427 11.7122 2.05843 15.3984 2.05835C18.1946 2.05835 20.7708 2.95227 23.0029 4.67847C23.4593 5.03135 23.8946 5.41581 24.3096 5.8269C24.7244 5.41597 25.1592 5.03224 25.6152 4.67944L25.6162 4.67847C27.8486 2.95237 30.4245 2.05835 33.2207 2.05835Z" stroke="#70654B" stroke-width="4.11691"/>
</svg>
